<svg id="Layer_1" data-name="Layer 1" xmlns="http://www.w3.org/2000/svg" xmlns:xlink="http://www.w3.org/1999/xlink" viewBox="0 0 1080 1080"><defs><style>.cls-1{fill:none;}.cls-2{fill:url(#linear-gradient);}.cls-3{clip-path:url(#clip-path);}.cls-4{fill:url(#linear-gradient-2);}.cls-5{fill:url(#linear-gradient-3);}.cls-6{fill:url(#linear-gradient-4);}.cls-7{fill:url(#linear-gradient-5);}.cls-8{fill:#fff;}.cls-9{fill:#cce0f4;}.cls-10{fill:#9ebedc;}</style><linearGradient id="linear-gradient" x1="562.36" y1="-9.6" x2="562.36" y2="610.77" gradientUnits="userSpaceOnUse"><stop offset="0" stop-color="#dde8f6"/><stop offset="1" stop-color="#fff"/></linearGradient><clipPath id="clip-path"><circle id="SVGID" class="cls-1" cx="562.4" cy="573.6" r="478.1"/></clipPath><linearGradient id="linear-gradient-2" x1="287.5" y1="405.07" x2="268.33" y2="1131.98" gradientUnits="userSpaceOnUse"><stop offset="0" stop-color="#8e95ca"/><stop offset="1" stop-color="#fff"/></linearGradient><linearGradient id="linear-gradient-3" x1="482.42" y1="226.16" x2="460.52" y2="1114.6" gradientUnits="userSpaceOnUse"><stop offset="0" stop-color="#8e95ca" stop-opacity="0"/><stop offset="1" stop-color="#fff"/></linearGradient><linearGradient id="linear-gradient-4" x1="564.78" y1="542.39" x2="545.65" y2="1267.91" xlink:href="#linear-gradient-2"/><linearGradient id="linear-gradient-5" x1="684.8" y1="361.5" x2="662.9" y2="1249.94" xlink:href="#linear-gradient-3"/></defs><circle class="cls-2" cx="562.4" cy="573.6" r="478.1"/><g class="cls-3"><polygon class="cls-4" points="342.8 1163.6 210.1 1163.6 210.1 484.6 342.8 450.4 342.8 1163.6"/><polygon class="cls-5" points="342.8 450.4 593.4 479.3 593.4 1163.6 342.8 1163.6 342.8 450.4"/><polygon class="cls-6" points="594.2 1300.2 513.3 1300.2 513.3 621.2 594.2 586.9 594.2 1300.2"/><polygon class="cls-7" points="594.2 586.9 746.7 615.9 746.7 1300.2 594.2 1300.2 594.2 586.9"/><path class="cls-8" d="M664.9,440.3H907.2s16.4-80.7-47.9-56.1c0,0-13.7-66.2-65.3-43.8,0,0-30.5,14.6-27.4,40.6,0,0-41.5-11.9-67,24.6,0,0-12.8,5.5-36.1,10.1S646.6,440.3,664.9,440.3Z"/></g><path class="cls-9" d="M546.8,1051.7h523s34.2-100.8-58.9-78.9c0,0,28.7-97.2-98.6-42.4,0,0-12.3-123.2-124.5-63,0,0,26-69.8-12.4-76.6s-71.2,1.3-80.7,52c0,0-74-43.8-95.9,28.7,0,0-96.8-17.8-79.2,87.6,0,0-57.7,12.4-48.1,50.7,0,0-39.7,16.4-24.6,35.6S546.8,1051.7,546.8,1051.7Z"/><path class="cls-9" d="M111.5,1051.7H634.4s34.3-100.8-58.8-78.9c0,0,28.7-97.2-98.6-42.4,0,0-12.3-123.2-124.6-63,0,0,26-69.8-12.3-76.6s-71.2,1.3-80.8,52c0,0-73.9-43.8-95.8,28.7,0,0-96.8-17.8-79.2,87.6,0,0-57.7,12.4-48.1,50.7,0,0-39.7,16.4-24.6,35.6S111.5,1051.7,111.5,1051.7Z"/><path class="cls-10" d="M130.7,1051.7s67,1.9,82.1-32.3c0,0,37,26,71.2,0,0,0,71.2,26,87.6,6.8,0,0,58.9,9.6,45.2-27.4,0,0,23.6,46.6,40,52.9Z"/><path class="cls-10" d="M546.8,1051.7s117.7,3.3,116.4-35.1c0,0,68.4,53.4,164.2,0,0,0,72.6,34.3,87.7,0,0,0,45.1,31,43.8,8.7,0,0,82.1-26.5,52-52.5,0,0,46.4-12.6,55.3,9.1,0,0,28.2,15.8,3.6,69.8Z"/></svg>