<svg id="Layer_1" data-name="Layer 1" xmlns="http://www.w3.org/2000/svg" xmlns:xlink="http://www.w3.org/1999/xlink" viewBox="0 0 1080 1080"><defs><style>.cls-1{fill:none;}.cls-2{fill:url(#linear-gradient);}.cls-3{clip-path:url(#clip-path);}.cls-4{fill:url(#linear-gradient-2);}.cls-5{fill:url(#linear-gradient-3);}.cls-6{fill:url(#linear-gradient-4);}.cls-7{fill:url(#linear-gradient-5);}.cls-8{fill:#fff;}.cls-9{fill:#cce0f4;}.cls-10{fill:#9ebedc;}.cls-11{fill:url(#linear-gradient-6);}.cls-12{fill:url(#linear-gradient-7);}.cls-13{fill:url(#linear-gradient-8);}.cls-14{fill:#9cb7ce;}.cls-15{fill:#6c859b;}.cls-16{fill:url(#linear-gradient-9);}.cls-17{fill:url(#linear-gradient-10);}.cls-18{fill:url(#linear-gradient-11);}.cls-19{fill:url(#linear-gradient-12);}.cls-20{fill:url(#linear-gradient-13);}.cls-21{fill:url(#linear-gradient-14);}.cls-22{fill:url(#linear-gradient-15);}.cls-23{fill:url(#linear-gradient-16);}.cls-24{fill:url(#linear-gradient-17);}.cls-25{fill:url(#linear-gradient-18);}.cls-26{fill:url(#linear-gradient-19);}.cls-27{fill:url(#linear-gradient-20);}.cls-28{fill:url(#linear-gradient-21);}.cls-29{fill:url(#linear-gradient-22);}.cls-30{fill:url(#linear-gradient-23);}.cls-31{fill:url(#linear-gradient-24);}.cls-32{fill:url(#linear-gradient-25);}</style><linearGradient id="linear-gradient" x1="540.79" y1="181.83" x2="540.79" y2="699.88" gradientUnits="userSpaceOnUse"><stop offset="0" stop-color="#252055"/><stop offset="1" stop-color="#251f4a"/></linearGradient><clipPath id="clip-path"><circle id="SVGID" class="cls-1" cx="540.8" cy="668.8" r="399.2"/></clipPath><linearGradient id="linear-gradient-2" x1="311.26" y1="528.12" x2="295.25" y2="1135.14" gradientUnits="userSpaceOnUse"><stop offset="0" stop-color="#8e95ca" stop-opacity="0"/><stop offset="1" stop-color="#251f4a"/></linearGradient><linearGradient id="linear-gradient-3" x1="474.03" y1="378.71" x2="455.74" y2="1120.62" xlink:href="#linear-gradient-2"/><linearGradient id="linear-gradient-4" x1="542.81" y1="642.79" x2="526.83" y2="1248.65" gradientUnits="userSpaceOnUse"><stop offset="0" stop-color="#8e95ca"/><stop offset="1" stop-color="#fff"/></linearGradient><linearGradient id="linear-gradient-5" x1="643.03" y1="491.73" x2="624.74" y2="1233.65" gradientUnits="userSpaceOnUse"><stop offset="0" stop-color="#8e95ca" stop-opacity="0"/><stop offset="1" stop-color="#fff"/></linearGradient><linearGradient id="linear-gradient-6" x1="392.77" y1="600.18" x2="390.1" y2="652.77" gradientUnits="userSpaceOnUse"><stop offset="0" stop-color="#f36e40"/><stop offset="1" stop-color="#faa53f"/></linearGradient><linearGradient id="linear-gradient-7" x1="469.81" y1="687.64" x2="467.14" y2="740.23" xlink:href="#linear-gradient-6"/><linearGradient id="linear-gradient-8" x1="445.23" y1="684.64" x2="442.56" y2="737.23" xlink:href="#linear-gradient-6"/><linearGradient id="linear-gradient-9" x1="250.48" y1="455.11" x2="253.91" y2="576.32" gradientUnits="userSpaceOnUse"><stop offset="0" stop-color="#dde8f6"/><stop offset="1" stop-color="#fff"/></linearGradient><linearGradient id="linear-gradient-10" x1="754.92" y1="497.55" x2="758.35" y2="618.76" xlink:href="#linear-gradient-9"/><linearGradient id="linear-gradient-11" x1="730.33" y1="699.9" x2="733.76" y2="821.12" xlink:href="#linear-gradient-9"/><linearGradient id="linear-gradient-12" x1="851.22" y1="529.06" x2="854.65" y2="650.27" xlink:href="#linear-gradient-9"/><linearGradient id="linear-gradient-13" x1="599.57" y1="633.58" x2="603" y2="754.8" xlink:href="#linear-gradient-9"/><linearGradient id="linear-gradient-14" x1="354.92" y1="528.86" x2="356.63" y2="589.49" xlink:href="#linear-gradient-9"/><linearGradient id="linear-gradient-15" x1="269.83" y1="613.65" x2="270.72" y2="645.28" xlink:href="#linear-gradient-9"/><linearGradient id="linear-gradient-16" x1="655.49" y1="470.49" x2="657.21" y2="531.12" xlink:href="#linear-gradient-9"/><linearGradient id="linear-gradient-17" x1="564.69" y1="563.35" x2="565.58" y2="594.98" xlink:href="#linear-gradient-9"/><linearGradient id="linear-gradient-18" x1="526.02" y1="563.44" x2="527.74" y2="624.07" xlink:href="#linear-gradient-9"/><linearGradient id="linear-gradient-19" x1="440.93" y1="648.23" x2="441.83" y2="679.86" xlink:href="#linear-gradient-9"/><linearGradient id="linear-gradient-20" x1="467.98" y1="808.22" x2="468.88" y2="839.85" xlink:href="#linear-gradient-9"/><linearGradient id="linear-gradient-21" x1="459.62" y1="505.93" x2="461.34" y2="566.56" xlink:href="#linear-gradient-9"/><linearGradient id="linear-gradient-22" x1="374.53" y1="590.72" x2="375.43" y2="622.34" xlink:href="#linear-gradient-9"/><linearGradient id="linear-gradient-23" x1="349.56" y1="753.35" x2="350.46" y2="784.97" xlink:href="#linear-gradient-9"/><linearGradient id="linear-gradient-24" x1="805.1" y1="781.45" x2="806.82" y2="842.08" xlink:href="#linear-gradient-9"/><linearGradient id="linear-gradient-25" x1="720.01" y1="866.24" x2="720.91" y2="897.86" xlink:href="#linear-gradient-9"/></defs><circle class="cls-2" cx="540.8" cy="668.8" r="399.2"/><g class="cls-3"><polygon class="cls-4" points="357.5 1161.5 246.6 1161.5 246.6 594.5 357.5 566 357.5 1161.5"/><polygon class="cls-5" points="357.5 566 566.7 590.1 566.7 1161.5 357.5 1161.5 357.5 566"/><polygon class="cls-6" points="567.4 1275.6 499.8 1275.6 499.8 708.6 567.4 680 567.4 1275.6"/><polygon class="cls-7" points="567.4 680 694.7 704.2 694.7 1275.6 567.4 1275.6 567.4 680"/><path class="cls-8" d="M626.4,557.6H828.7s13.8-67.5-40-46.9c0,0-11.4-55.3-54.5-36.6,0,0-25.5,12.2-22.8,33.9,0,0-34.7-9.9-56,20.6,0,0-10.7,4.6-30.1,8.4S611.2,557.6,626.4,557.6Z"/></g><path class="cls-9" d="M527.8,1068.1H964.5s28.6-84.1-49.2-65.9c0,0,24-81.1-82.3-35.4,0,0-10.3-102.9-104-52.6,0,0,21.7-58.3-10.3-64s-59.4,1.1-67.4,43.4c0,0-61.8-36.5-80.1,24,0,0-80.8-14.8-66.1,73.2,0,0-48.2,10.3-40.2,42.3,0,0-33.1,13.7-20.5,29.7S527.8,1068.1,527.8,1068.1Z"/><path class="cls-9" d="M164.3,1068.1H601s28.5-84.1-49.2-65.9c0,0,24-81.1-82.3-35.4,0,0-10.3-102.9-104-52.6,0,0,21.7-58.3-10.3-64s-59.5,1.1-67.5,43.4c0,0-61.7-36.5-80,24,0,0-80.8-14.8-66.1,73.2,0,0-48.2,10.3-40.2,42.3,0,0-33.1,13.7-20.6,29.7S164.3,1068.1,164.3,1068.1Z"/><path class="cls-10" d="M180.3,1068.1s56,1.6,68.6-27c0,0,30.8,21.7,59.4,0,0,0,59.5,21.7,73.2,5.7,0,0,49.1,8,37.7-22.8,0,0,19.7,38.8,33.5,44.1Z"/><path class="cls-10" d="M527.8,1068.1s98.3,2.7,97.2-29.3c0,0,57.1,44.6,137.2,0,0,0,60.5,28.6,73.1,0,0,0,37.7,25.8,36.6,7.2,0,0,68.6-22,43.4-43.8,0,0,38.8-10.5,46.3,7.6,0,0,23.5,13.2,2.9,58.3Z"/><polygon class="cls-11" points="401.6 649.7 380.5 647.2 380.5 618.5 401.2 620.7 401.6 649.7"/><polygon class="cls-12" points="478.7 737.2 457.5 734.7 457.5 706 478.2 708.2 478.7 737.2"/><polygon class="cls-13" points="454.1 734.2 432.9 731.7 432.9 703 453.7 705.2 454.1 734.2"/><path class="cls-14" d="M214.8,409H713s32.6-84.1-56.1-65.8c0,0,27.4-81.2-93.9-35.5,0,0-11.7-102.9-118.6-52.6,0,0,24.7-58.3-11.8-64s-67.8,1.2-76.9,43.5c0,0-70.4-36.6-91.3,24,0,0-92.2-14.9-75.5,73.1,0,0-54.9,10.3-45.8,42.3,0,0-37.8,13.8-23.5,29.8S214.8,409,214.8,409Z"/><path class="cls-14" d="M461.3,454.7H959.5s32.6-91.1-56.1-71.2c0,0,27.4-87.9-93.9-38.4,0,0-11.7-111.4-118.7-57,0,0,24.8-63.1-11.7-69.3s-67.8,1.3-76.9,47.1c0,0-70.5-39.7-91.3,26,0,0-92.3-16.1-75.5,79.2,0,0-54.9,11.1-45.8,45.8,0,0-37.8,14.8-23.5,32.2S461.3,454.7,461.3,454.7Z"/><path class="cls-15" d="M479.6,454.7s63.9,1.8,78.2-29.2c0,0,35.2,23.6,67.8,0,0,0,67.8,23.6,83.5,6.2,0,0,56.1,8.7,43-24.7,0,0,22.5,42.1,38.2,47.7Z"/><path class="cls-15" d="M214.8,409s112.2,2.8,110.9-29.3c0,0,65.2,44.6,156.5,0,0,0,69.1,28.6,83.4,0,0,0,43.1,25.9,41.8,7.2,0,0,78.2-22,49.5-43.7,0,0,44.2-10.6,52.7,7.6,0,0,26.9,13.1,3.4,58.2Z"/><rect class="cls-16" x="246.3" y="454.7" width="11.4" height="107.46" rx="5.1"/><rect class="cls-17" x="750.7" y="497.2" width="11.4" height="107.46" rx="5.1"/><rect class="cls-18" x="726.1" y="699.5" width="11.4" height="107.46" rx="5.1"/><rect class="cls-19" x="847" y="528.7" width="11.4" height="107.46" rx="5.1"/><rect class="cls-20" x="595.4" y="633.2" width="11.4" height="107.46" rx="5.1"/><rect class="cls-21" x="350" y="528.7" width="11.4" height="53.73" rx="5.1"/><rect class="cls-22" x="264.5" y="613.6" width="11.4" height="28.01" rx="5.1"/><rect class="cls-23" x="650.5" y="470.3" width="11.4" height="53.73" rx="5.1"/><rect class="cls-24" x="559.4" y="563.3" width="11.4" height="28.01" rx="5.1"/><rect class="cls-25" x="521.1" y="563.3" width="11.4" height="53.73" rx="5.1"/><rect class="cls-26" x="435.6" y="648.2" width="11.4" height="28.01" rx="5.1"/><rect class="cls-27" x="462.7" y="808.1" width="11.4" height="28.01" rx="5.1"/><rect class="cls-28" x="454.7" y="505.8" width="11.4" height="53.73" rx="5.1"/><rect class="cls-29" x="369.2" y="590.6" width="11.4" height="28.01" rx="5.1"/><rect class="cls-30" x="344.2" y="753.3" width="11.4" height="28.01" rx="5.1"/><rect class="cls-31" x="800.1" y="781.3" width="11.4" height="53.73" rx="5.1"/><rect class="cls-32" x="714.7" y="866.2" width="11.4" height="28.01" rx="5.1"/><path class="cls-9" d="M832.5,643.2h210.1s13.7-40.4-23.7-31.6c0,0,11.6-39.1-39.6-17.1,0,0-4.9-49.5-50-25.3,0,0,10.4-28-5-30.7s-28.6.5-32.4,20.8c0,0-29.7-17.6-38.5,11.6,0,0-38.9-7.2-31.8,35.2,0,0-23.2,4.9-19.3,20.3,0,0-16,6.6-9.9,14.3S832.5,643.2,832.5,643.2Z"/><path class="cls-10" d="M832.5,643.2s47.3,1.4,46.8-14c0,0,27.4,21.4,65.9,0,0,0,29.2,13.7,35.2,0,0,0,18.2,12.4,17.6,3.4,0,0,33-10.6,20.9-21,0,0,18.7-5.1,22.2,3.6,0,0,11.4,6.4,1.5,28Z"/></svg>