<svg id="Layer_1" data-name="Layer 1" xmlns="http://www.w3.org/2000/svg" xmlns:xlink="http://www.w3.org/1999/xlink" viewBox="0 0 1080 1080"><defs><style>.cls-1{fill:none;}.cls-2{fill:url(#linear-gradient);}.cls-3{clip-path:url(#clip-path);}.cls-4{fill:url(#linear-gradient-2);}.cls-5{fill:url(#linear-gradient-3);}.cls-6{fill:url(#linear-gradient-4);}.cls-7{fill:url(#linear-gradient-5);}.cls-8{fill:#fff;}.cls-9{fill:#cce0f4;}.cls-10{fill:#9ebedc;}.cls-11{fill:url(#linear-gradient-6);}.cls-12{fill:url(#linear-gradient-7);}.cls-13{fill:url(#linear-gradient-8);}.cls-14{fill:#f4f2f0;opacity:0.45;}</style><linearGradient id="linear-gradient" x1="552.62" y1="83.08" x2="552.62" y2="663.51" gradientUnits="userSpaceOnUse"><stop offset="0" stop-color="#252055"/><stop offset="1" stop-color="#251f4a"/></linearGradient><clipPath id="clip-path"><circle id="SVGID" class="cls-1" cx="552.6" cy="628.7" r="447.3"/></clipPath><linearGradient id="linear-gradient-2" x1="295.45" y1="471.06" x2="277.52" y2="1151.18" gradientUnits="userSpaceOnUse"><stop offset="0" stop-color="#8e95ca" stop-opacity="0"/><stop offset="1" stop-color="#251f4a"/></linearGradient><linearGradient id="linear-gradient-3" x1="477.83" y1="303.66" x2="457.33" y2="1134.92" xlink:href="#linear-gradient-2"/><linearGradient id="linear-gradient-4" x1="554.88" y1="599.54" x2="536.99" y2="1278.36" gradientUnits="userSpaceOnUse"><stop offset="0" stop-color="#8e95ca"/><stop offset="1" stop-color="#fff"/></linearGradient><linearGradient id="linear-gradient-5" x1="667.18" y1="430.29" x2="646.69" y2="1261.55" gradientUnits="userSpaceOnUse"><stop offset="0" stop-color="#8e95ca" stop-opacity="0"/><stop offset="1" stop-color="#fff"/></linearGradient><linearGradient id="linear-gradient-6" x1="386.78" y1="551.81" x2="383.79" y2="610.72" gradientUnits="userSpaceOnUse"><stop offset="0" stop-color="#f36e40"/><stop offset="1" stop-color="#faa53f"/></linearGradient><linearGradient id="linear-gradient-7" x1="473.09" y1="649.79" x2="470.11" y2="708.71" xlink:href="#linear-gradient-6"/><linearGradient id="linear-gradient-8" x1="445.56" y1="646.43" x2="442.57" y2="705.35" xlink:href="#linear-gradient-6"/></defs><circle class="cls-2" cx="552.6" cy="628.7" r="447.3"/><g class="cls-3"><polygon class="cls-4" points="347.2 1180.8 223 1180.8 223 545.5 347.2 513.5 347.2 1180.8"/><polygon class="cls-5" points="347.2 513.5 581.6 540.5 581.6 1180.8 347.2 1180.8 347.2 513.5"/><polygon class="cls-6" points="582.4 1308.5 506.7 1308.5 506.7 673.2 582.4 641.2 582.4 1308.5"/><polygon class="cls-7" points="582.4 641.2 725.1 668.3 725.1 1308.5 582.4 1308.5 582.4 641.2"/><path class="cls-8" d="M648.5,504H875.3s15.3-75.5-44.9-52.5c0,0-12.8-61.9-61-41,0,0-28.6,13.7-25.6,38,0,0-38.9-11.1-62.8,23.1,0,0-12,5.1-33.7,9.4S631.5,504,648.5,504Z"/></g><path class="cls-9" d="M538.1,1076h489.3s32-94.2-55.1-73.7c0,0,26.9-91-92.2-39.7,0,0-11.6-115.3-116.6-58.9,0,0,24.3-65.4-11.5-71.8s-66.6,1.3-75.6,48.7c0,0-69.2-41-89.7,26.9,0,0-90.5-16.7-74.1,82,0,0-53.9,11.5-45,47.4,0,0-37.1,15.3-23,33.3S538.1,1076,538.1,1076Z"/><path class="cls-9" d="M130.8,1076H620.1s32-94.2-55.1-73.7c0,0,26.9-91-92.2-39.7,0,0-11.6-115.3-116.6-58.9,0,0,24.3-65.4-11.5-71.8s-66.6,1.3-75.6,48.7c0,0-69.2-41-89.7,26.9,0,0-90.6-16.7-74.1,82,0,0-53.9,11.5-45,47.4,0,0-37.1,15.3-23,33.3S130.8,1076,130.8,1076Z"/><path class="cls-10" d="M148.7,1076s62.8,1.9,76.9-30.2c0,0,34.5,24.4,66.6,0,0,0,66.6,24.4,81.9,6.4,0,0,55.1,9,42.3-25.6,0,0,22.1,43.6,37.5,49.4Z"/><path class="cls-10" d="M538.1,1076s110.1,3.1,108.8-32.7c0,0,64.1,49.9,153.7,0,0,0,67.9,32,82,0,0,0,42.3,28.9,41,8,0,0,76.9-24.7,48.7-49,0,0,43.4-11.8,51.8,8.5,0,0,26.3,14.7,3.3,65.2Z"/><polygon class="cls-11" points="396.7 607.3 373 604.5 373 572.3 396.2 574.8 396.7 607.3"/><polygon class="cls-12" points="483 705.3 459.3 702.5 459.3 670.3 482.5 672.8 483 705.3"/><polygon class="cls-13" points="455.5 701.9 431.8 699.1 431.8 667 455 669.4 455.5 701.9"/><circle class="cls-8" cx="266.9" cy="296.7" r="76.8"/><path class="cls-14" d="M296.2,225.6s-13.5,1.9-3.9,16,19.9,8.3,18.6,26.9-8.5,37.1-11,40.3-11.4,7.7-22.3,10.9-25.6,12.2-24.4,19.9,10.7,11.5,13.7,10.9,12,.6,20.3-10.9,18.1-15.4,23.8-15.4,14,0,13.3-10.2,6.4-18,4.5-31.4S337.1,244.9,296.2,225.6Z"/></svg>