<svg id="Layer_1" data-name="Layer 1" xmlns="http://www.w3.org/2000/svg" xmlns:xlink="http://www.w3.org/1999/xlink" viewBox="0 0 1080 1060.9"><defs><style>.cls-1{fill:none;}.cls-2{fill:#cce0f4;}.cls-3{fill:#9ebedc;}.cls-4{fill:url(#linear-gradient);}.cls-5{clip-path:url(#clip-path);}.cls-6{fill:url(#linear-gradient-2);}.cls-7{fill:url(#linear-gradient-3);}.cls-8{fill:url(#linear-gradient-4);}.cls-9{fill:url(#linear-gradient-5);}.cls-10{fill:#9cb7ce;}.cls-11{fill:#6c859b;}.cls-12{fill:url(#linear-gradient-6);}.cls-13{fill:url(#linear-gradient-7);}.cls-14{fill:url(#linear-gradient-8);}.cls-15{fill:url(#linear-gradient-9);}.cls-16{fill:url(#linear-gradient-10);}.cls-17{fill:url(#linear-gradient-11);}.cls-18{fill:url(#linear-gradient-12);}.cls-19{fill:url(#linear-gradient-13);}.cls-20{fill:url(#linear-gradient-14);}.cls-21{fill:url(#linear-gradient-15);}.cls-22{fill:url(#linear-gradient-16);}.cls-23{fill:url(#linear-gradient-17);}.cls-24{fill:url(#linear-gradient-18);}.cls-25{fill:url(#linear-gradient-19);}.cls-26{fill:url(#linear-gradient-20);}.cls-27{fill:url(#linear-gradient-21);}.cls-28{fill:url(#linear-gradient-22);}</style><linearGradient id="linear-gradient" x1="575.6" y1="-4.98" x2="575.6" y2="499.88" gradientUnits="userSpaceOnUse"><stop offset="0" stop-color="#88909b"/><stop offset="1" stop-color="#f8f8f9"/></linearGradient><clipPath id="clip-path" transform="translate(0 -204.1)"><circle id="SVGID" class="cls-1" cx="575.6" cy="673.7" r="389.1"/></clipPath><linearGradient id="linear-gradient-2" x1="351.91" y1="332.49" x2="336.32" y2="924.06" gradientUnits="userSpaceOnUse"><stop offset="0" stop-color="#8e95ca"/><stop offset="1" stop-color="#fff"/></linearGradient><linearGradient id="linear-gradient-3" x1="510.55" y1="186.88" x2="492.72" y2="909.91" gradientUnits="userSpaceOnUse"><stop offset="0" stop-color="#8e95ca" stop-opacity="0"/><stop offset="1" stop-color="#fff"/></linearGradient><linearGradient id="linear-gradient-4" x1="577.57" y1="444.24" x2="562" y2="1034.68" xlink:href="#linear-gradient-2"/><linearGradient id="linear-gradient-5" x1="675.25" y1="297.03" x2="657.42" y2="1020.06" xlink:href="#linear-gradient-3"/><linearGradient id="linear-gradient-6" x1="304.13" y1="258.96" x2="307.47" y2="377.08" gradientUnits="userSpaceOnUse"><stop offset="0" stop-color="#dde8f6"/><stop offset="1" stop-color="#fff"/></linearGradient><linearGradient id="linear-gradient-7" x1="795.73" y1="300.32" x2="799.07" y2="418.44" xlink:href="#linear-gradient-6"/><linearGradient id="linear-gradient-8" x1="771.76" y1="497.53" x2="775.1" y2="615.65" xlink:href="#linear-gradient-6"/><linearGradient id="linear-gradient-9" x1="889.57" y1="331.03" x2="892.92" y2="449.15" xlink:href="#linear-gradient-6"/><linearGradient id="linear-gradient-10" x1="644.33" y1="432.89" x2="647.68" y2="551.01" xlink:href="#linear-gradient-6"/><linearGradient id="linear-gradient-11" x1="405.91" y1="330.84" x2="407.58" y2="389.92" xlink:href="#linear-gradient-6"/><linearGradient id="linear-gradient-12" x1="322.98" y1="413.47" x2="323.86" y2="444.28" xlink:href="#linear-gradient-6"/><linearGradient id="linear-gradient-13" x1="698.83" y1="273.95" x2="700.51" y2="333.03" xlink:href="#linear-gradient-6"/><linearGradient id="linear-gradient-14" x1="610.34" y1="364.45" x2="611.21" y2="395.26" xlink:href="#linear-gradient-6"/><linearGradient id="linear-gradient-15" x1="572.66" y1="364.54" x2="574.33" y2="423.62" xlink:href="#linear-gradient-6"/><linearGradient id="linear-gradient-16" x1="489.74" y1="447.17" x2="490.61" y2="477.98" xlink:href="#linear-gradient-6"/><linearGradient id="linear-gradient-17" x1="516.1" y1="603.09" x2="516.97" y2="633.9" xlink:href="#linear-gradient-6"/><linearGradient id="linear-gradient-18" x1="507.95" y1="308.49" x2="509.62" y2="367.56" xlink:href="#linear-gradient-6"/><linearGradient id="linear-gradient-19" x1="425.02" y1="391.12" x2="425.9" y2="421.93" xlink:href="#linear-gradient-6"/><linearGradient id="linear-gradient-20" x1="400.69" y1="549.61" x2="401.56" y2="580.42" xlink:href="#linear-gradient-6"/><linearGradient id="linear-gradient-21" x1="844.63" y1="577" x2="846.3" y2="636.07" xlink:href="#linear-gradient-6"/><linearGradient id="linear-gradient-22" x1="761.71" y1="659.63" x2="762.58" y2="690.44" xlink:href="#linear-gradient-6"/></defs><path class="cls-2" d="M69.6,788.4H421.8s23-67.9-39.6-53.1c0,0,19.3-65.5-66.4-28.6,0,0-8.3-83-83.9-42.4,0,0,17.5-47-8.3-51.6s-48,.9-54.4,35c0,0-49.8-29.5-64.6,19.4,0,0-65.2-12-53.3,59,0,0-38.9,8.3-32.4,34.1,0,0-26.7,11-16.6,23.9S69.6,788.4,69.6,788.4Z" transform="translate(0 -204.1)"/><path class="cls-3" d="M69.6,788.4s79.3,2.2,78.4-23.6c0,0,46.1,35.9,110.6,0,0,0,48.9,23,59,0,0,0,30.4,20.8,29.5,5.8,0,0,55.3-17.8,35.1-35.3,0,0,31.2-8.5,37.2,6.1,0,0,19,10.6,2.4,47Z" transform="translate(0 -204.1)"/><circle class="cls-4" cx="575.6" cy="469.6" r="389.1"/><g class="cls-5"><polygon class="cls-6" points="397 949.8 288.9 949.8 288.9 397.2 397 369.4 397 949.8"/><polygon class="cls-7" points="397 369.4 600.8 392.9 600.8 949.8 397 949.8 397 369.4"/><polygon class="cls-8" points="601.5 1060.9 535.7 1060.9 535.7 508.3 601.5 480.5 601.5 1060.9"/><polygon class="cls-9" points="601.5 480.5 725.6 504.1 725.6 1060.9 601.5 1060.9 601.5 480.5"/></g><path class="cls-10" d="M269.4,418.1H754.9s31.7-82-54.7-64.2c0,0,26.7-79.1-91.5-34.5,0,0-11.4-100.3-115.6-51.2,0,0,24.1-56.9-11.5-62.4s-66.1,1.1-74.9,42.3c0,0-68.7-35.7-89,23.4,0,0-89.9-14.5-73.6,71.3,0,0-53.5,10-44.6,41.2,0,0-36.9,13.4-22.9,29S269.4,418.1,269.4,418.1Z" transform="translate(0 -204.1)"/><path class="cls-10" d="M509.6,462.7H995.1s31.7-88.8-54.7-69.5c0,0,26.7-85.7-91.5-37.4,0,0-11.4-108.6-115.6-55.5,0,0,24.1-61.5-11.5-67.5s-66.1,1.2-74.9,45.8c0,0-68.7-38.6-89,25.3,0,0-89.9-15.7-73.6,77.2,0,0-53.5,10.9-44.6,44.7,0,0-36.9,14.4-22.9,31.3S509.6,462.7,509.6,462.7Z" transform="translate(0 -204.1)"/><path class="cls-11" d="M527.4,462.7s62.3,1.7,76.2-28.5c0,0,34.4,22.9,66.1,0,0,0,66.1,22.9,81.4,6,0,0,54.6,8.5,41.9-24.1,0,0,21.9,41,37.2,46.6Z" transform="translate(0 -204.1)"/><path class="cls-11" d="M269.4,418.1s109.3,2.7,108-28.5c0,0,63.6,43.4,152.5,0,0,0,67.4,27.8,81.4,0,0,0,41.9,25.2,40.6,7,0,0,76.3-21.5,48.3-42.7,0,0,43.1-10.2,51.4,7.4,0,0,26.2,12.9,3.3,56.8Z" transform="translate(0 -204.1)"/><path class="cls-2" d="M556.2,1068H908.4s23-67.8-39.6-53.1c0,0,19.3-65.4-66.4-28.5,0,0-8.3-83-83.9-42.5,0,0,17.5-47-8.3-51.6s-48,.9-54.4,35c0,0-49.8-29.5-64.6,19.4,0,0-65.2-12-53.3,59,0,0-38.9,8.3-32.4,34.1,0,0-26.7,11.1-16.6,24S556.2,1068,556.2,1068Z" transform="translate(0 -204.1)"/><path class="cls-2" d="M283.9,1065.7H636.1s23-73.4-39.6-57.5c0,0,19.3-70.9-66.4-30.9,0,0-8.3-89.9-83.9-45.9,0,0,17.5-51-8.3-56s-48,1-54.4,38c0,0-49.8-32-64.6,20.9,0,0-65.2-12.9-53.3,63.9,0,0-38.9,9-32.4,37,0,0-26.7,12-16.6,25.9S283.9,1065.7,283.9,1065.7Z" transform="translate(0 -204.1)"/><path class="cls-3" d="M296.8,1065.7s45.2,1.4,55.3-23.5c0,0,24.9,18.9,48,0,0,0,47.9,18.9,59,5,0,0,39.6,6.9,30.4-20,0,0,15.9,33.9,27,38.5Z" transform="translate(0 -204.1)"/><path class="cls-3" d="M556.2,1068s79.3,2.3,78.4-23.6c0,0,46.1,36,110.6,0,0,0,48.9,23.1,59,0,0,0,30.4,20.9,29.5,5.8,0,0,55.3-17.8,35.1-35.3,0,0,31.2-8.5,37.2,6.1,0,0,19,10.7,2.4,47Z" transform="translate(0 -204.1)"/><rect class="cls-12" x="300" y="258.6" width="11.1" height="104.72" rx="5.1"/><rect class="cls-13" x="791.6" y="300" width="11.1" height="104.72" rx="5.1"/><rect class="cls-14" x="767.7" y="497.2" width="11.1" height="104.72" rx="5.1"/><rect class="cls-15" x="885.5" y="330.7" width="11.1" height="104.72" rx="5.1"/><rect class="cls-16" x="640.2" y="432.5" width="11.1" height="104.72" rx="5.1"/><rect class="cls-17" x="401.1" y="330.7" width="11.1" height="52.36" rx="5.1"/><rect class="cls-18" x="317.8" y="413.4" width="11.1" height="27.29" rx="5.1"/><rect class="cls-19" x="694" y="273.8" width="11.1" height="52.36" rx="5.1"/><rect class="cls-20" x="605.2" y="364.4" width="11.1" height="27.29" rx="5.1"/><rect class="cls-21" x="567.8" y="364.4" width="11.1" height="52.36" rx="5.1"/><rect class="cls-22" x="484.5" y="447.1" width="11.1" height="27.29" rx="5.1"/><rect class="cls-23" x="510.9" y="603" width="11.1" height="27.29" rx="5.1"/><rect class="cls-24" x="503.1" y="308.3" width="11.1" height="52.36" rx="5.1"/><rect class="cls-25" x="419.8" y="391" width="11.1" height="27.29" rx="5.1"/><rect class="cls-26" x="395.5" y="549.5" width="11.1" height="27.29" rx="5.1"/><rect class="cls-27" x="839.8" y="576.8" width="11.1" height="52.36" rx="5.1"/><rect class="cls-28" x="756.5" y="659.5" width="11.1" height="27.29" rx="5.1"/><path class="cls-2" d="M871.4,646.4H1076s13.4-39.5-23-30.9c0,0,11.3-38-38.6-16.6,0,0-4.8-48.2-48.7-24.6,0,0,10.1-27.4-4.9-30.1s-27.8.6-31.6,20.4c0,0-28.9-17.1-37.5,11.3,0,0-37.9-7-31,34.3,0,0-22.6,4.8-18.8,19.8,0,0-15.6,6.4-9.7,13.9S871.4,646.4,871.4,646.4Z" transform="translate(0 -204.1)"/><path class="cls-3" d="M871.4,646.4s46,1.3,45.5-13.7c0,0,26.8,20.9,64.3,0,0,0,28.4,13.4,34.3,0,0,0,17.7,12.1,17.1,3.3,0,0,32.2-10.3,20.4-20.5,0,0,18.2-4.9,21.7,3.6,0,0,11,6.1,1.3,27.3Z" transform="translate(0 -204.1)"/></svg>